<svg xmlns="http://www.w3.org/2000/svg" version="1.0" width="602.000000pt" height="628.000000pt" viewBox="0 0 602.000000 628.000000" preserveAspectRatio="xMidYMid meet">

<g transform="translate(0.000000,628.000000) scale(0.100000,-0.100000)" fill="#007db3" stroke="none">
<path d="M3978 5685 c-164 -41 -291 -166 -334 -330 -11 -40 -14 -217 -14 -870 0 -894 -1 -881 57 -987 53 -98 170 -188 283 -218 32 -9 138 -12 358 -11 293 1 315 2 352 21 103 52 132 201 57 287 -61 70 -77 73 -393 73 -262 0 -283 1 -305 19 l-24 19 -3 779 c-2 789 -1 824 34 837 7 3 134 6 281 6 148 1 286 6 308 12 171 44 196 270 40 356 -26 15 -72 17 -335 19 -235 2 -318 -1 -362 -12z" fill="#B39A5A"/>
<path d="M5045 5048 c-71 -25 -119 -82 -131 -154 -9 -58 10 -115 57 -168 22 -25 37 -46 32 -47 -4 0 -96 0 -203 0 -283 1 -400 -9 -445 -40 -42 -29 -85 -108 -85 -158 0 -44 29 -108 61 -138 55 -50 77 -53 396 -53 l297 0 -41 -42 c-77 -78 -91 -149 -47 -236 47 -94 159 -131 252 -83 20 11 134 118 254 238 187 189 218 224 228 262 12 47 7 99 -15 141 -7 14 -114 125 -237 247 -183 181 -230 223 -263 232 -48 13 -70 13 -110 -1z" fill="#B39A5A"/>
<path d="M1860 4955 c-536 -81 -944 -483 -1031 -1014 -15 -95 -12 -301 6 -405 28 -160 95 -323 191 -467 51 -78 170 -207 238 -259 25 -19 45 -37 46 -40 0 -3 -34 -22 -75 -43 -267 -137 -523 -376 -679 -634 -97 -161 -177 -360 -215 -534 -26 -122 -45 -341 -38 -442 10 -143 91 -261 211 -305 49 -19 421 -99 651 -141 477 -87 982 -99 1505 -35 158 19 805 149 875 175 74 27 138 87 175 163 25 51 32 80 37 152 11 178 -27 436 -93 625 -146 420 -438 762 -829 970 -44 23 -82 44 -84 45 -2 2 12 16 30 31 238 195 395 458 444 742 31 183 18 404 -37 579 -173 560 -752 925 -1328 837z m345 -390 c153 -32 281 -100 399 -214 111 -107 191 -242 232 -391 28 -102 26 -320 -4 -425 -69 -238 -220 -419 -437 -524 -134 -65 -220 -86 -365 -85 -137 0 -229 20 -347 74 -103 48 -162 88 -238 165 -104 103 -175 226 -217 372 -19 64 -23 103 -23 213 0 145 10 200 56 313 45 112 89 177 184 273 118 119 254 195 409 229 84 18 261 18 351 0z m109 -2060 c461 -97 841 -440 991 -893 39 -118 55 -206 62 -333 5 -109 5 -117 -13 -122 -25 -8 -284 -61 -444 -93 -503 -97 -1016 -111 -1530 -39 -96 13 -451 82 -647 125 -50 11 -51 12 -48 43 2 18 6 68 9 113 35 571 480 1078 1053 1199 161 35 405 35 567 0z" fill="#B39A5A"/>
</g>
</svg>