<svg id="Layer_1" data-name="Layer 1" xmlns="http://www.w3.org/2000/svg" viewBox="35.37 27.78 299.93 82.68">
  <defs>
    <style>.cls-2 { fill: #aa985d; }</style>
  </defs>
  <rect width="1000%" height="1000%" fill="white"/>
  <path d="M214.15 42.22a.23.23 0 0 1 .09.19v1.68a.13.13 0 0 1-.14.14h-1.26a.13.13 0 0 1-.14-.14v-.82a.12.12 0 0 0 0-.12 2.77 2.77 0 0 0-1.47-.37 1.82 1.82 0 0 0-2 1.27 6.84 6.84 0 0 0-.22 2.19 7.19 7.19 0 0 0 .18 2.15 1.77 1.77 0 0 0 2 1.25 2.82 2.82 0 0 0 1.55-.34c.11-.07.14-.11.14-.22v-1.86c0-.06 0-.09-.08-.09h-1.6a.13.13 0 0 1-.14-.14v-1.12a.14.14 0 0 1 .14-.14h3.06a.14.14 0 0 1 .14.14v4a.33.33 0 0 1-.19.34 5.33 5.33 0 0 1-3.13.89c-1.92 0-3.06-.71-3.55-2.22a8.32 8.32 0 0 1-.24-2.66 7.87 7.87 0 0 1 .27-2.64c.49-1.51 1.74-2.31 3.66-2.31a4.78 4.78 0 0 1 2.93.95Zm7.71 3.71a6.17 6.17 0 0 1 .22 2 .13.13 0 0 1-.15.14h-4.16c-.06 0-.09 0-.09.08a1.6 1.6 0 0 0 .1.52 1.48 1.48 0 0 0 1.51 1 2.06 2.06 0 0 0 1.59-.64.15.15 0 0 1 .21 0l.82.73a.13.13 0 0 1 0 .2 3.58 3.58 0 0 1-2.78 1.14 2.74 2.74 0 0 1-2.81-1.87 5.31 5.31 0 0 1-.24-1.66 5 5 0 0 1 .23-1.66 2.71 2.71 0 0 1 2.75-1.87 2.75 2.75 0 0 1 2.8 1.89Zm-4.09.33a1.64 1.64 0 0 0-.09.58s0 .08.09.08h2.65a.07.07 0 0 0 .08-.08 1.93 1.93 0 0 0-.08-.58 1.44 1.44 0 0 0-2.65 0Zm11.54-.33a5 5 0 0 1 .22 1.66 5.11 5.11 0 0 1-.22 1.67 3 3 0 0 1-5.56 0 4.83 4.83 0 0 1-.23-1.67 4.77 4.77 0 0 1 .23-1.66 3 3 0 0 1 5.56 0Zm-4.05.42a5.61 5.61 0 0 0 0 2.49 1.35 1.35 0 0 0 2.53 0 5.61 5.61 0 0 0 0-2.49 1.35 1.35 0 0 0-2.53 0Zm10.35-2.16a.14.14 0 0 1 .14.14v1.22c0 .1-.06.17-.17.14a5.06 5.06 0 0 0-.83-.11c-1 0-1.51.53-1.51 1.73v2.2c0 .06 0 .09.08.09h.68a.13.13 0 0 1 .14.14v1.09a.14.14 0 0 1-.14.17h-3a.14.14 0 0 1-.14-.14v-1.12a.13.13 0 0 1 .14-.14h.6a.08.08 0 0 0 .09-.09v-3.83a.08.08 0 0 0-.09-.09h-.6a.13.13 0 0 1-.14-.14v-1.09a.13.13 0 0 1 .14-.14h2.12a.13.13 0 0 1 .14.14v.7a1.94 1.94 0 0 1 1.7-.94 3.06 3.06 0 0 1 .65.07Zm5.51.67v-.5a.13.13 0 0 1 .14-.14h2.12a.13.13 0 0 1 .14.14v1.09a.13.13 0 0 1-.14.14h-.6a.08.08 0 0 0-.09.09v4.87a2.83 2.83 0 0 1-3.15 3.1 3.36 3.36 0 0 1-2.45-1 .13.13 0 0 1 0-.2l.83-.83a.13.13 0 0 1 .21 0 2.05 2.05 0 0 0 1.47.63c1 0 1.51-.56 1.51-1.61V50a1.94 1.94 0 0 1-1.75.79 2.27 2.27 0 0 1-2.3-1.64 5.1 5.1 0 0 1-.22-1.72 5 5 0 0 1 .22-1.71 2.26 2.26 0 0 1 2.3-1.66 1.92 1.92 0 0 1 1.76.8Zm-2.54 1.46a3.31 3.31 0 0 0-.15 1.11 3.18 3.18 0 0 0 .15 1.1 1.16 1.16 0 0 0 1.2.87 1.15 1.15 0 0 0 1.2-.87 3.18 3.18 0 0 0 .15-1.1 3.31 3.31 0 0 0-.15-1.11 1.14 1.14 0 0 0-1.2-.85 1.16 1.16 0 0 0-1.2.85Zm8.42-2.1a.13.13 0 0 1 .14.14v5.15a.08.08 0 0 0 .09.09h.6a.13.13 0 0 1 .14.14v1.09a.14.14 0 0 1-.14.14h-2.94a.13.13 0 0 1-.14-.14v-1.09a.13.13 0 0 1 .14-.14h.6s.08 0 .08-.09v-3.83c0-.06 0-.09-.08-.09h-.6a.13.13 0 0 1-.14-.14v-1.09a.13.13 0 0 1 .14-.14Zm0-2.78a.13.13 0 0 1 .14.15v1.21a.13.13 0 0 1-.14.14h-1.29a.13.13 0 0 1-.14-.14v-1.21a.14.14 0 0 1 .14-.15Zm7.74 4.98v3.09a.08.08 0 0 0 .09.09h.6a.13.13 0 0 1 .14.14v1.09a.14.14 0 0 1-.14.14h-2a.13.13 0 0 1-.14-.14v-.49a2.16 2.16 0 0 1-1.87.78 2 2 0 0 1-2.26-2.07c0-1.47 1-2.16 2.69-2.16h1.34c.06 0 .09 0 .09-.08v-.27c0-.77-.3-1.17-1.39-1.17a4 4 0 0 0-.73.08.09.09 0 0 0-.07.1v.6a.13.13 0 0 1-.14.14h-1.22a.13.13 0 0 1-.14-.14v-1.43a.18.18 0 0 1 .12-.18 5.31 5.31 0 0 1 2.25-.48c2.04 0 2.78.7 2.78 2.36Zm-2.66 1.65c-1 0-1.44.29-1.44.93s.4.85 1.15.85c1 0 1.47-.38 1.47-1.15v-.55s0-.08-.09-.08Zm15.35-6.63a.14.14 0 0 1 .14.15v2.24a.14.14 0 0 1-.14.14h-1.21a.14.14 0 0 1-.14-.14V43c0-.06 0-.09-.08-.09h-1.43c-.06 0-.08 0-.08.09v6.52c0 .06 0 .09.08.09h.73a.13.13 0 0 1 .14.14v1.09a.14.14 0 0 1-.14.14H262a.14.14 0 0 1-.14-.14v-1.1a.13.13 0 0 1 .14-.14h.73c.06 0 .08 0 .08-.09V43c0-.06 0-.09-.08-.09h-1.43c-.06 0-.08 0-.08.09v.84a.14.14 0 0 1-.14.14h-1.21a.14.14 0 0 1-.14-.14v-2.25a.14.14 0 0 1 .14-.15Zm5.63 4.49a6.17 6.17 0 0 1 .22 2 .14.14 0 0 1-.15.14H269c-.06 0-.09 0-.09.08a1.38 1.38 0 0 0 .1.52 1.47 1.47 0 0 0 1.51 1 2.06 2.06 0 0 0 1.59-.64.15.15 0 0 1 .21 0l.82.73a.13.13 0 0 1 0 .2 3.58 3.58 0 0 1-2.78 1.14 2.73 2.73 0 0 1-2.81-1.87 6.11 6.11 0 0 1 0-3.32 3 3 0 0 1 5.54 0Zm-4.09.33a1.64 1.64 0 0 0-.09.58s0 .08.09.08h2.64c.06 0 .09 0 .09-.08a1.64 1.64 0 0 0-.09-.58 1.44 1.44 0 0 0-2.64 0Zm11.16-1.66a.17.17 0 0 1 .11.18v1.54a.14.14 0 0 1-.14.14h-1.19a.13.13 0 0 1-.14-.14v-.62c0-.05 0-.07-.07-.1a2.72 2.72 0 0 0-.86-.13 1.29 1.29 0 0 0-1.38.88 3.71 3.71 0 0 0-.14 1.24 3.81 3.81 0 0 0 .14 1.26 1.3 1.3 0 0 0 1.38.87 2.22 2.22 0 0 0 .86-.12c.05 0 .07 0 .07-.1v-.63a.13.13 0 0 1 .14-.14h1.19a.13.13 0 0 1 .14.14v1.55a.2.2 0 0 1-.11.19 5.08 5.08 0 0 1-2.33.51 2.7 2.7 0 0 1-2.87-1.82 5.59 5.59 0 0 1-.21-1.71 5.28 5.28 0 0 1 .21-1.66 2.77 2.77 0 0 1 2.87-1.87 4.78 4.78 0 0 1 2.33.54Zm3.79-3.16a.14.14 0 0 1 .14.15v3.26a2.06 2.06 0 0 1 1.75-.79 2.31 2.31 0 0 1 2.33 2.51v2.94c0 .06 0 .09.08.09h.58a.13.13 0 0 1 .14.14v1.09a.14.14 0 0 1-.14.14h-2.92a.14.14 0 0 1-.14-.14v-1.09a.13.13 0 0 1 .14-.14h.61c.05 0 .08 0 .08-.09v-2.57c0-.87-.42-1.47-1.26-1.47s-1.26.6-1.26 1.47v2.57c0 .06 0 .09.08.09h.6a.13.13 0 0 1 .14.14v1.09a.13.13 0 0 1-.14.14h-2.93a.14.14 0 0 1-.14-.14v-1.09a.13.13 0 0 1 .14-.14h.61s.08 0 .08-.09V42.9a.07.07 0 0 0-.08-.08h-.61a.14.14 0 0 1-.14-.14v-1.09a.14.14 0 0 1 .14-.15ZM212.5 84.77h12.9V89h-17.77V60h4.87ZM228.92 60h4.91v4.58h-4.91Zm.21 8h4.49v21h-4.49Zm13.97 1.6a6.11 6.11 0 0 1 5-2c5.13 0 8.36 3.36 8.36 9.53v2.65c0 5.59-2.73 9.58-8.36 9.58-2.35 0-4-.63-5-1.89V89h-4.33V60h4.33Zm8.91 10v-2.39c0-3.66-1.43-5.71-4.46-5.71s-4.41 2-4.45 5.46v2.68c0 3.28 1.18 5.84 4.45 5.84s4.45-2.56 4.45-5.84ZM272 73.22a3.46 3.46 0 0 0-3-1.64c-2.27 0-3.87 1.68-3.87 4.7V89h-4.49V68h4.41v1.89a5.24 5.24 0 0 1 4.71-2.27 6.36 6.36 0 0 1 5.83 3.11Zm13.54 3.36h4.54v-1.77c0-2.64-1-3.36-4.16-3.36-2.27 0-3.4.26-4.41 1.89l-3.24-2.27c1.52-2.47 3.78-3.48 7.94-3.48 5.38 0 8.28 1.68 8.28 7.27V89h-4.41v-2c-1 1.64-2.31 2.31-4.87 2.31-4.63 0-7.48-2.35-7.48-6.55 0-4.46 3.32-6.18 7.81-6.18Zm4.54 3.42h-4.2c-2.65 0-3.74.93-3.74 2.78s1.43 2.73 3.57 2.73c2.73 0 4.37-.85 4.37-4.5Zm20.67-6.78a3.49 3.49 0 0 0-3-1.64c-2.27 0-3.86 1.68-3.86 4.7V89h-4.5V68h4.41v1.89a5.24 5.24 0 0 1 4.71-2.27 6.37 6.37 0 0 1 5.84 3.11Zm9.8-5.22 5.34 14.78L330.67 68h4.63l-7.4 21.84c-1.8 5.38-3.36 7.14-9.24 7.14v-4.15c2.94 0 4.12-.46 5.17-3.61L315.8 68Z" style="fill:#143156"/>
  <path class="cls-2" d="M152.31 105.7a2.38 2.38 0 1 0 2.34 2.37 2.36 2.36 0 0 0-2.35-2.37Zm0 4.39a2 2 0 0 1 0-4 2 2 0 0 1 0 4Z"/>
  <path class="cls-2" d="M152.73 108.16a.68.68 0 0 0 .52-.65.61.61 0 0 0-.25-.51 1.34 1.34 0 0 0-.82-.2 5.06 5.06 0 0 0-.75.06v2.64h.43v-1.13h.29a.49.49 0 0 1 .57.46 1.68 1.68 0 0 0 .18.67h.44a2.41 2.41 0 0 1-.17-.65c-.05-.44-.17-.65-.44-.69Zm-.57-.17h-.3v-.9h.3c.48 0 .64.23.64.47s-.29.44-.64.44ZM77.33 28.41Zm10.95 25.91V75h11.09l1.17-6.2h5c-1.83 9.46-11.23 16-23.16 16-.82 0-1.65 0-2.47-.1a32.69 32.69 0 0 1-17.1-6c-4.87-3.69-7.44-8.64-7.41-14.3a21.08 21.08 0 0 1 7.27-15.85A27 27 0 0 1 79.44 42h1.21A34.73 34.73 0 0 1 102 49.8l.45.36a3.52 3.52 0 0 1 .43.34l.17.15h12.73V28.4h-12.9v6.38a49.22 49.22 0 0 0-25.59-7h-.17A44.71 44.71 0 0 0 45.62 41c-6.71 6.83-10.35 15.18-10.25 23.52.12 9 4.44 17.32 12.17 23.52A44.56 44.56 0 0 0 75 97.41c1.24 0 2.51 0 3.75-.16 10-.81 18.82-3.08 25.07-6.43v2.75h13.71V68.81h4.73v28.72h-7.14v12.92H147V97.53h-7.14V68.8H156l1.13 6.2h11.14V54.32Zm-11-25.91Z"/>
  <path class="cls-2" transform="rotate(-.08 193.323 71.755)" d="M187.3 28.01h1.5v82.23h-1.5z"/>
</svg>